<svg width="21" height="22" viewBox="0 0 21 22" fill="none" xmlns="http://www.w3.org/2000/svg">
<path fill-rule="evenodd" clip-rule="evenodd" d="M5.21629 14.9265C5.05629 14.9265 4.89529 14.8755 4.75929 14.7715C4.43129 14.5185 4.36929 14.0475 4.62229 13.7195L7.61529 9.82945C7.73729 9.67045 7.91829 9.56745 8.11629 9.54245C8.31829 9.51645 8.51629 9.57245 8.67329 9.69745L11.4933 11.9125L13.9603 8.72945C14.2143 8.40045 14.6843 8.33945 15.0123 8.59545C15.3403 8.84945 15.4003 9.32045 15.1463 9.64745L12.2163 13.4275C12.0943 13.5855 11.9143 13.6885 11.7163 13.7125C11.5163 13.7395 11.3183 13.6815 11.1603 13.5585L8.34229 11.3445L5.81129 14.6335C5.66329 14.8255 5.44129 14.9265 5.21629 14.9265Z" fill="#111111"/>
<mask id="mask0_1_3403" style="mask-type:luminance" maskUnits="userSpaceOnUse" x="15" y="0" width="6" height="7">
<path fill-rule="evenodd" clip-rule="evenodd" d="M15.2953 0.923828H20.6393V6.26873H15.2953V0.923828Z" fill="white"/>
</mask>
<g mask="url(#mask0_1_3403)">
<path fill-rule="evenodd" clip-rule="evenodd" d="M17.9673 2.42383C17.3213 2.42383 16.7953 2.94883 16.7953 3.59583C16.7953 4.24183 17.3213 4.76883 17.9673 4.76883C18.6133 4.76883 19.1393 4.24183 19.1393 3.59583C19.1393 2.94883 18.6133 2.42383 17.9673 2.42383ZM17.9673 6.26883C16.4943 6.26883 15.2953 5.06983 15.2953 3.59583C15.2953 2.12183 16.4943 0.923828 17.9673 0.923828C19.4413 0.923828 20.6393 2.12183 20.6393 3.59583C20.6393 5.06983 19.4413 6.26883 17.9673 6.26883Z" fill="#111111"/>
</g>
<mask id="mask1_1_3403" style="mask-type:luminance" maskUnits="userSpaceOnUse" x="0" y="1" width="20" height="21">
<path fill-rule="evenodd" clip-rule="evenodd" d="M0 1.76562H19.8619V21.6266H0V1.76562Z" fill="white"/>
</mask>
<g mask="url(#mask1_1_3403)">
<path fill-rule="evenodd" clip-rule="evenodd" d="M14.2329 21.6266H5.62888C2.26188 21.6266 -0.00012207 19.2616 -0.00012207 15.7416V7.65963C-0.00012207 4.13462 2.26188 1.76562 5.62888 1.76562H12.8969C13.3109 1.76562 13.6469 2.10162 13.6469 2.51562C13.6469 2.92963 13.3109 3.26562 12.8969 3.26562H5.62888C3.12088 3.26562 1.49988 4.98962 1.49988 7.65963V15.7416C1.49988 18.4466 3.08188 20.1266 5.62888 20.1266H14.2329C16.7409 20.1266 18.3619 18.4056 18.3619 15.7416V8.70262C18.3619 8.28862 18.6979 7.95262 19.1119 7.95262C19.5259 7.95262 19.8619 8.28862 19.8619 8.70262V15.7416C19.8619 19.2616 17.5999 21.6266 14.2329 21.6266Z" fill="#111111"/>
</g>
</svg>
